HIERARCHY
ROOT Hips
{
  OFFSET 265.287 66.7526 -254.649
  CHANNELS 6 Xposition Yposition Zposition Zrotation Xrotation Yrotation
  JOINT LeftUpLeg
  {
    OFFSET 8.64259 1.95398 -2.38835
    CHANNELS 3 Zrotation Xrotation Yrotation
    JOINT LeftLeg
    {
      OFFSET 43.7702 0 0
      CHANNELS 3 Zrotation Xrotation Yrotation
      JOINT LeftFoot
      {
        OFFSET 40.6238 0 0
        CHANNELS 3 Zrotation Xrotation Yrotation
        JOINT LeftToeBase
        {
          OFFSET 12.7242 0 0
          CHANNELS 3 Zrotation Xrotation Yrotation
          End Site
          {
            OFFSET 0 0 0
          }
        }
      }
    }
  }
  JOINT RightUpLeg
  {
    OFFSET -8.2249 1.95398 -2.59336
    CHANNELS 3 Zrotation Xrotation Yrotation
    JOINT RightLeg
    {
      OFFSET 43.5653 0 0
      CHANNELS 3 Zrotation Xrotation Yrotation
      JOINT RightFoot
      {
        OFFSET 40.6238 0 0
        CHANNELS 3 Zrotation Xrotation Yrotation
        JOINT RightToeBase
        {
          OFFSET 12.7242 0 0
          CHANNELS 3 Zrotation Xrotation Yrotation
          End Site
          {
            OFFSET 0 0 0
          }
        }
      }
    }
  }
  JOINT Spine
  {
    OFFSET 0.165834 0.87714 6.61349
    CHANNELS 3 Zrotation Xrotation Yrotation
    JOINT Spine1
    {
      OFFSET 7.38963 1.71661e-005 0
      CHANNELS 3 Zrotation Xrotation Yrotation
      JOINT Spine2
      {
        OFFSET 11.9445 1.14441e-005 0
        CHANNELS 3 Zrotation Xrotation Yrotation
        JOINT Spine3
        {
          OFFSET 14.7254 4.19617e-005 0
          CHANNELS 3 Zrotation Xrotation Yrotation
          JOINT Spine4
          {
            OFFSET 10.9679 0 0
            CHANNELS 3 Zrotation Xrotation Yrotation
            JOINT RightShoulder
            {
              OFFSET 2.46616 -1.6653 3.69651
              CHANNELS 3 Zrotation Xrotation Yrotation
              JOINT RightArm
              {
                OFFSET 13.0012 0 0
                CHANNELS 3 Zrotation Xrotation Yrotation
                JOINT RightForeArm
                {
                  OFFSET 28.7848 1.52588e-005 0
                  CHANNELS 3 Zrotation Xrotation Yrotation
                  JOINT RightHand
                  {
                    OFFSET 26.5688 1.52588e-005 0
                    CHANNELS 3 Zrotation Xrotation Yrotation
                    End Site
                    {
                      OFFSET 0 0 0
                    }
                  }
                }
              }
            }
            JOINT LeftShoulder
            {
              OFFSET 2.38034 -1.29275 -3.7523
              CHANNELS 3 Zrotation Xrotation Yrotation
              JOINT LeftArm
              {
                OFFSET 16.3182 6.10351e-005 0
                CHANNELS 3 Zrotation Xrotation Yrotation
                JOINT LeftForeArm
                {
                  OFFSET 27.0901 0 0
                  CHANNELS 3 Zrotation Xrotation Yrotation
                  JOINT LeftHand
                  {
                    OFFSET 24.5451 1.52588e-005 0
                    CHANNELS 3 Zrotation Xrotation Yrotation
                    End Site
                    {
                      OFFSET 0 0 0
                    }
                  }
                }
              }
            }
            JOINT Neck
            {
              OFFSET 5.0226 -0.0266342 0
              CHANNELS 3 Zrotation Xrotation Yrotation
              JOINT Head
              {
                OFFSET 6.69364 2.86102e-005 0
                CHANNELS 3 Zrotation Xrotation Yrotation
                End Site
                {
                  OFFSET 0 0 0
                }
              }
            }
          }
        }
      }
    }
  }
}
MOTION
Frames:	12
Frame Time:	0.0416667
-116.58 88.8338 -88.5751 85.0674 -41.5255 87.9299 174.074 51.8282 88.2043 -91.7086 8.37909 1.62554 53.0926 0.504725 18.2523 50.7551 -7.02805 -2.67011 174.722 -2.08396 94.6959 -37.3246 -14.0908 3.33829 64.3551 1.20399 10.9847 54.7964 -3.2595 4.22017 1.71582 8.2683 -90.5835 10.3585 3.15119 -1.43334 -1.30955 3.08504 -1.57074 -23.8744 3.43615 -0.419032 -3.8618 3.43613 -0.419037 99.1683 -42.2584 -87.3236 23.7167 -43.3155 2.09778 5.55641 12.2639 -105.943 -12.2599 -0.425265 -1.18925 -81.8984 -43.0851 90.1665 16.1437 53.193 -9.70671 -33.8918 -12.1947 -106.608 18.7569 -1.37854 -11.2679 12.6394 -4.98588 0.3316 -2.21379 -4.98179 -4.31078 
-96.9455 92.1185 -69.8406 83.4621 -42.3519 86.5692 177.445 49.4031 85.6648 -49.8551 11.7067 2.51378 50.7565 -2.36374 9.65401 53.6823 -7.74218 -0.542723 178.131 -19.8906 93.4503 -19.343 -13.0223 -1.75599 27.8739 12.7117 29.038 25.6004 0.55018 -1.07967 2.0775 7.95606 -90.3127 10.9879 3.99097 -1.00468 -0.677381 3.94291 -1.17962 -23.2623 4.10814 0.243258 -3.24962 4.10814 0.243254 100.397 -42.6864 -85.1908 27.8834 -45.8405 8.66805 9.11286 12.1185 -109.866 -13.5948 -0.316734 -2.64446 -83.3867 -42.3761 87.6308 12.3827 56.3399 -3.2212 -31.2197 -12.7465 -108.731 18.4797 -1.37085 -11.3215 10.9306 -6.58204 2.36107 -4.20642 -6.93481 -7.65867 
-78.8439 91.735 -52.1103 89.0133 -41.9397 92.0309 -177.579 39.7029 84.0813 -34.2095 16.6649 0.285028 42.0412 -7.02639 3.89154 59.6284 -9.2732 1.99952 177.231 -8.56984 96.6482 -67.7147 -21.3101 -2.23666 33.0512 13.2868 12.4535 27.0573 -0.227442 3.53232 1.56688 8.51128 -90.5254 9.86643 2.88479 -1.26677 -1.80205 2.82625 -1.39259 -24.3623 3.13202 -0.340459 -4.34968 3.13201 -0.340469 100.827 -43.8686 -84.416 28.7031 -40.0568 12.4718 3.98902 12.6648 -108.809 -9.4974 -0.12016 -3.84839 -83.0432 -44.2597 88.4066 9.69073 52.3258 -5.37432 -27.2806 -13.3884 -106.675 17.7291 -1.23426 -10.8165 14.9916 -4.87943 0.637098 -6.09078 -4.79885 -3.93696 
-60.9402 88.8006 -34.5453 97.5081 -39.4007 91.0591 -174.332 23.88 75.2205 -46.9591 19.2504 -3.71481 62.8419 6.60551 25.3702 39.9251 -3.1032 -6.29398 174.848 9.8863 85.7997 -107.812 -13.1298 -3.78604 38.4901 9.30368 9.46794 25.3996 0.828544 -2.6368 0.4032 9.35827 -89.6642 8.1582 0.951827 0.610769 -3.51235 0.977784 0.568283 -26.0488 0.724231 0.868567 -6.03616 0.724232 0.868556 101.793 -46.0599 -82.7805 32.5084 -32.6238 20.6346 -0.929497 12.3027 -109.289 -10.6927 -0.0332591 -5.0056 -83.7686 -45.9118 87.428 15.2892 46.302 -18.5894 -26.4676 -14.1561 -101.664 16.5437 -1.04294 -10.0697 18.0091 -3.29445 -4.70059 -5.8375 -1.81604 1.04413 
-41.3886 87.1444 -16.7308 90.6184 -34.8747 86.6115 -178.737 10.7053 75.6678 -49.9857 25.1284 -0.577398 72.5207 14.8092 34.6661 45.5123 -5.33295 -3.78041 179.75 41.4975 81.8045 -110.873 -9.79595 -3.97522 39.8235 8.32066 18.16 37.7003 -1.25038 -1.12731 -0.971166 8.31939 -89.5666 10.2428 -1.73696 1.00935 -1.42741 -1.69087 1.08481 -23.971 -1.95999 0.440501 -3.95839 -1.95999 0.440499 102.774 -42.3301 -81.1127 43.1448 -29.6143 34.9524 -1.01823 13.2164 -114.672 -12.3119 -0.113508 -4.25028 -83.2425 -45.2265 88.1886 28.7775 47.9209 -34.9118 -32.6856 -15.1575 -100.098 13.1151 -0.992627 -10.9966 15.96 -0.79813 -8.1664 -8.54483 1.29954 4.40479 
-20.3161 91.5524 2.83758 91.0803 -32.1901 92.813 -175.747 -11.5603 85.9596 -37.3003 25.8011 4.81663 52.0135 -2.47437 7.32827 56.204 -8.701 -1.51799 173.503 46.244 88.6514 -77.2081 -16.9683 -1.59002 46.4761 7.67601 7.83942 50.083 -3.03462 0.879529 -1.63421 7.93553 -90.5335 10.9906 -3.50002 -0.723985 -0.675957 -3.52846 -0.569077 -23.2397 -3.12055 -1.74325 -3.22702 -3.12054 -1.74325 101.476 -37.8287 -83.4275 51.0837 -24.2829 51.0895 0.287111 14.524 -119.964 -9.4492 -0.0307968 -5.17019 -83.7312 -42.393 87.0707 35.5376 54.3067 -43.4795 -34.1923 -15.364 -103.776 12.7801 -0.888853 -10.3708 13.6542 1.74179 -12.6763 -11.6593 4.07509 12.3852 
-0.128517 93.8822 21.6266 90.3043 -31.0998 91.6935 -179.265 -15.8855 88.8891 -50.3682 19.445 6.05502 36.3294 -7.8629 1.29937 52.0139 -7.36192 -2.0482 175.819 38.7512 85.3397 -30.3634 -11.2505 1.35459 41.7851 9.99493 17.8742 58.8287 -3.52979 4.37269 -2.23236 7.69732 -90.6543 11.4713 -4.74708 -0.818718 -0.191016 -4.77851 -0.608533 -22.7842 -4.28118 -2.20997 -2.77155 -4.2812 -2.20999 100.286 -37.4849 -85.6128 48.6822 -24.82 52.0523 1.15949 15.0834 -119.908 -4.54032 0.0249643 -6.49502 -82.0983 -40.0715 89.5493 29.9632 54.6781 -35.8202 -35.9741 -10.1747 -109.793 13.0491 -0.807718 -9.66053 13.229 2.67103 -18.7684 -14.0796 5.65607 19.258 
18.6756 91.7933 39.6202 95.386 -31.9957 93.9212 178.998 -6.97555 88.2586 -90.6792 10.0673 2.4264 41.1858 -4.85297 8.6495 51.1034 -7.42871 -5.4628 172.179 30.3591 86.8012 -22.0219 -8.43408 4.51693 35.9348 12.4747 23.7325 56.6303 -3.5115 3.20726 -1.67567 8.25384 -90.6055 10.3513 -3.61501 -0.886362 -1.31492 -3.6505 -0.726208 -23.8802 -3.18142 -1.93276 -3.86756 -3.18141 -1.93275 101.694 -40.2511 -83.0004 42.923 -26.1992 38.5895 0.965809 12.7189 -115.068 -6.72363 0.0679055 -6.80163 -82.4203 -39.2866 88.9272 26.6531 49.0322 -33.2826 -32.4092 -10.6355 -107.837 13.0888 -0.775198 -9.4003 12.9421 1.09124 -16.1954 -11.0029 4.08623 16.1417 
36.9956 89.3372 57.5969 99.1443 -33.6749 102.145 179.69 12.568 94.5935 -114.02 6.63248 0.69373 46.7006 -0.297798 15.4891 46.3903 -5.71722 -5.27065 170.336 24.9186 96.2732 -48.3458 -18.8128 7.39149 58.2767 2.28824 -0.476154 39.8345 -1.65542 3.70538 -0.740679 8.5739 -91.4523 9.69312 -2.13304 -2.71329 -1.97871 -2.25035 -2.61685 -24.4968 -1.21948 -3.22846 -4.48418 -1.21946 -3.22845 101.951 -44.6413 -82.5192 31.7785 -33.3676 19.1345 4.76089 10.7072 -109.235 -11.763 0.0500788 -5.88516 -81.9786 -43.0491 90.0311 21.9905 46.7885 -27.4524 -32.7875 -11.7717 -104.074 19.2275 -0.962231 -8.93725 13.0684 0.866764 -5.91259 -10.2977 1.89363 7.47524 
56.7037 89.0356 77.2244 96.7173 -34.4028 99.9012 174.029 33.2909 93.9147 -103.614 12.9213 0.9723 49.1423 -1.35598 13.1643 49.4255 -6.80707 -5.30358 175.587 9.2523 94.4462 -49.5883 -14.8058 3.88558 70.7296 -5.11738 -3.36584 51.1297 -2.96184 2.97587 0.221797 8.01201 -91.3928 10.8557 -0.202439 -2.7571 -0.817994 -0.323554 -2.74554 -23.332 0.635336 -2.69059 -3.31934 0.635341 -2.69059 101.772 -42.4068 -82.8381 30.6998 -34.5967 8.61756 6.2316 10.1018 -106.394 -10.267 -0.18527 -3.31535 -81.7194 -44.2615 90.5581 17.7898 47.9312 -20.8727 -33.3062 -13.3335 -101.114 15.8799 -1.01444 -10.1112 11.0153 -1.79993 -3.07554 -11.2694 -1.37341 4.57431 
77.1755 92.8581 96.4386 95.9587 -38.157 94.1963 179.552 36.3597 86.8536 -62.1535 7.88387 1.93102 48.39 -2.62419 12.6741 52.0701 -7.45932 -2.54172 176.905 -14.675 96.899 -31.5189 -14.5199 -0.980888 49.2106 7.86583 16.1682 42.9855 -1.54725 1.12923 1.02453 7.4183 -90.394 12.0444 1.85015 -1.00186 0.374155 1.80427 -1.08233 -22.1698 2.06568 -0.399341 -2.15711 2.06569 -0.399337 101.734 -41.4472 -82.9107 33.4653 -42.3364 9.77417 6.46124 12.4638 -107.366 -9.46899 -0.408123 -0.174283 -81.808 -42.282 90.2448 7.88306 54.2041 -4.1096 -31.0807 -14.3504 -103.817 15.1867 -1.12588 -11.0607 3.66965 -3.91484 -3.8574 -9.87849 -3.14659 -0.783041 
96.0653 94.1568 114.759 93.9939 -42.4018 92.7745 -177.211 32.0133 87.5848 -20.1322 14.7663 1.0761 38.545 -7.86354 4.87672 59.3819 -9.77303 -1.7836 179.021 -16.1889 93.4854 -50.5238 -19.3146 -3.93277 39.766 10.4037 13.5687 25.9494 1.18881 -5.83909 1.5749 7.19086 -90.195 12.505 3.03649 -0.735638 0.837414 3.00119 -0.868693 -21.7267 3.11706 0.211868 -1.71406 3.11707 0.21187 101.575 -40.6863 -83.1982 35.864 -44.9594 12.6225 7.50101 13.2773 -107.774 -7.97592 -0.32789 -0.413218 -82.1601 -42.2062 89.6549 3.56267 54.6015 3.53967 -30.0761 -13.5791 -106.169 14.7507 -1.15649 -11.4475 2.54317 -4.66513 -1.22961 -9.76353 -4.18716 -4.29502 
